<svg width="314" height="40" viewBox="0 0 314 40" fill="none" xmlns="http://www.w3.org/2000/svg">
<path d="M50.1964 4.08274V30.2967H46.7739V4.08274H50.1964Z" fill="#ffffff"/>
<path d="M63.6266 9.31049C66.1339 9.31049 68.1648 10.0752 69.7194 11.6047C71.2739 13.1091 72.0512 15.2904 72.0512 18.1488V30.2967H68.6663V18.6377C68.6663 16.5817 68.1523 15.0146 67.1243 13.9365C66.0963 12.8333 64.6922 12.2817 62.912 12.2817C61.1067 12.2817 59.665 12.8458 58.5869 13.9741C57.5338 15.1024 57.0073 16.7447 57.0073 18.901V30.2967H53.5848V9.68658H57.0073V12.6201C57.6843 11.5671 58.5994 10.7522 59.7528 10.1755C60.9312 9.59883 62.2225 9.31049 63.6266 9.31049Z" fill="#ffffff"/>
<path d="M83.5841 12.5073H79.259V30.2967H75.8365V12.5073H73.1662V9.68658H75.8365V8.21981C75.8365 5.91308 76.4257 4.23318 77.6042 3.18011C78.8077 2.10196 80.7258 1.56289 83.3585 1.56289V4.42123C81.8541 4.42123 80.7885 4.72211 80.1616 5.32386C79.5599 5.90054 79.259 6.86586 79.259 8.21981V9.68658H83.5841V12.5073Z" fill="#ffffff"/>
<path d="M86.8976 6.33932C86.2457 6.33932 85.6941 6.11366 85.2428 5.66235C84.7915 5.21103 84.5658 4.65942 84.5658 4.00752C84.5658 3.35562 84.7915 2.80401 85.2428 2.35269C85.6941 1.90138 86.2457 1.67572 86.8976 1.67572C87.5244 1.67572 88.051 1.90138 88.4772 2.35269C88.9285 2.80401 89.1542 3.35562 89.1542 4.00752C89.1542 4.65942 88.9285 5.21103 88.4772 5.66235C88.051 6.11366 87.5244 6.33932 86.8976 6.33932ZM88.5524 9.68658V30.2967H85.1299V9.68658H88.5524Z" fill="#ffffff"/>
<path d="M101.983 9.31049C104.49 9.31049 106.521 10.0752 108.075 11.6047C109.63 13.1091 110.407 15.2904 110.407 18.1488V30.2967H107.022V18.6377C107.022 16.5817 106.508 15.0146 105.48 13.9365C104.452 12.8333 103.048 12.2817 101.268 12.2817C99.4628 12.2817 98.021 12.8458 96.9429 13.9741C95.8898 15.1024 95.3633 16.7447 95.3633 18.901V30.2967H91.9408V9.68658H95.3633V12.6201C96.0403 11.5671 96.9554 10.7522 98.1088 10.1755C99.2872 9.59883 100.579 9.31049 101.983 9.31049Z" fill="#ffffff"/>
<path d="M115.321 6.33932C114.669 6.33932 114.117 6.11366 113.666 5.66235C113.215 5.21103 112.989 4.65942 112.989 4.00752C112.989 3.35562 113.215 2.80401 113.666 2.35269C114.117 1.90138 114.669 1.67572 115.321 1.67572C115.948 1.67572 116.474 1.90138 116.9 2.35269C117.352 2.80401 117.577 3.35562 117.577 4.00752C117.577 4.65942 117.352 5.21103 116.9 5.66235C116.474 6.11366 115.948 6.33932 115.321 6.33932ZM116.976 9.68658V30.2967H113.553V9.68658H116.976Z" fill="#ffffff"/>
<path d="M124.539 12.5073V24.6552C124.539 25.6582 124.752 26.3728 125.178 26.799C125.604 27.2002 126.344 27.4008 127.397 27.4008H129.917V30.2967H126.833C124.927 30.2967 123.498 29.8579 122.545 28.9804C121.593 28.1028 121.116 26.6611 121.116 24.6552V12.5073H118.446V9.68658H121.116V4.49645H124.539V9.68658H129.917V12.5073H124.539Z" fill="#ffffff"/>
<path d="M149.371 9.68658L136.96 40H133.424L137.486 30.071L129.174 9.68658H132.973L139.442 26.3853L145.836 9.68658H149.371Z" fill="#ffffff"/>
<path d="M178.07 30.2967L174.647 26.8366C173.369 28.1655 172.002 29.1559 170.548 29.8078C169.094 30.4346 167.451 30.748 165.621 30.748C163.816 30.748 162.211 30.4221 160.807 29.7702C159.428 29.1183 158.35 28.1906 157.573 26.987C156.82 25.7835 156.444 24.3794 156.444 22.7748C156.444 20.9444 156.958 19.3397 157.986 17.9607C159.039 16.5566 160.581 15.4534 162.612 14.6511C161.81 13.6983 161.233 12.8207 160.882 12.0184C160.531 11.216 160.356 10.3385 160.356 9.38571C160.356 8.28249 160.632 7.2921 161.183 6.41454C161.76 5.51191 162.575 4.80986 163.628 4.3084C164.681 3.80694 165.897 3.5562 167.276 3.5562C168.63 3.5562 169.808 3.81947 170.811 4.34601C171.814 4.87254 172.566 5.6122 173.068 6.56498C173.569 7.49269 173.795 8.53322 173.745 9.68658H170.322C170.347 8.65859 170.059 7.85625 169.457 7.27956C168.856 6.67781 168.078 6.37693 167.126 6.37693C166.123 6.37693 165.308 6.66527 164.681 7.24195C164.079 7.79356 163.778 8.50815 163.778 9.38571C163.778 10.1379 163.979 10.865 164.38 11.5671C164.806 12.2691 165.508 13.1341 166.486 14.1621L174.309 22.0226L174.986 20.9695L177.543 16.682H181.229L178.145 22.0226C177.719 22.7748 177.217 23.5646 176.641 24.392L182.546 30.2967H178.07ZM165.621 27.8145C166.975 27.8145 168.191 27.5512 169.269 27.0247C170.373 26.4981 171.413 25.6832 172.391 24.58L164.681 16.8324C161.472 18.061 159.867 20.0042 159.867 22.6619C159.867 24.1412 160.393 25.3698 161.446 26.3477C162.525 27.3255 163.916 27.8145 165.621 27.8145Z" fill="#ffffff"/>
<path d="M204.015 16.7948C204.968 16.9453 205.833 17.3339 206.61 17.9607C207.413 18.5875 208.04 19.3648 208.491 20.2925C208.967 21.2202 209.205 22.2106 209.205 23.2637C209.205 24.5926 208.867 25.7961 208.19 26.8742C207.513 27.9273 206.523 28.7672 205.219 29.3941C203.94 29.9958 202.423 30.2967 200.668 30.2967H190.89V4.08274H200.292C202.072 4.08274 203.589 4.38362 204.843 4.98537C206.096 5.56205 207.037 6.35186 207.663 7.35478C208.29 8.35771 208.604 9.486 208.604 10.7397C208.604 12.2942 208.177 13.5855 207.325 14.6135C206.498 15.6164 205.394 16.3435 204.015 16.7948ZM194.312 15.4033H200.066C201.671 15.4033 202.912 15.0272 203.79 14.275C204.667 13.5228 205.106 12.4822 205.106 11.1534C205.106 9.82449 204.667 8.78395 203.79 8.03176C202.912 7.27956 201.646 6.90347 199.991 6.90347H194.312V15.4033ZM200.367 27.476C202.072 27.476 203.401 27.0748 204.354 26.2725C205.307 25.4701 205.783 24.3544 205.783 22.9252C205.783 21.471 205.282 20.3301 204.279 19.5027C203.276 18.6502 201.934 18.224 200.254 18.224H194.312V27.476H200.367Z" fill="#ffffff"/>
<path d="M230.315 19.2018C230.315 19.8537 230.277 20.5433 230.202 21.2704H213.729C213.855 23.3013 214.544 24.8934 215.798 26.0468C217.077 27.1751 218.618 27.7392 220.424 27.7392C221.903 27.7392 223.132 27.4008 224.11 26.7238C225.112 26.0217 225.814 25.094 226.216 23.9407H229.901C229.35 25.9214 228.247 27.5387 226.592 28.7923C224.937 30.0209 222.881 30.6352 220.424 30.6352C218.468 30.6352 216.713 30.1964 215.158 29.3188C213.629 28.4413 212.425 27.2002 211.548 25.5955C210.67 23.9657 210.232 22.0852 210.232 19.954C210.232 17.8228 210.658 15.9549 211.51 14.3502C212.363 12.7455 213.554 11.5169 215.083 10.6644C216.638 9.78688 218.418 9.3481 220.424 9.3481C222.379 9.3481 224.11 9.77434 225.614 10.6268C227.118 11.4793 228.272 12.6578 229.074 14.1621C229.901 15.6415 230.315 17.3214 230.315 19.2018ZM226.78 18.4873C226.78 17.1835 226.491 16.0677 225.915 15.14C225.338 14.1872 224.548 13.4726 223.545 12.9962C222.568 12.4948 221.477 12.244 220.273 12.244C218.543 12.244 217.064 12.7957 215.835 13.8989C214.632 15.0021 213.942 16.5315 213.767 18.4873H226.78Z" fill="#ffffff"/>
<path d="M250.14 9.68658L237.729 40H234.193L238.255 30.071L229.943 9.68658H233.742L240.211 26.3853L246.605 9.68658H250.14Z" fill="#ffffff"/>
<path d="M260.124 30.6352C258.194 30.6352 256.439 30.1964 254.859 29.3188C253.304 28.4413 252.076 27.2002 251.173 25.5955C250.296 23.9657 249.857 22.0852 249.857 19.954C249.857 17.8479 250.308 15.9925 251.211 14.3878C252.139 12.758 253.392 11.5169 254.972 10.6644C256.551 9.78688 258.319 9.3481 260.275 9.3481C262.23 9.3481 263.998 9.78688 265.578 10.6644C267.157 11.5169 268.398 12.7455 269.301 14.3502C270.229 15.9549 270.693 17.8228 270.693 19.954C270.693 22.0852 270.216 23.9657 269.263 25.5955C268.336 27.2002 267.07 28.4413 265.465 29.3188C263.86 30.1964 262.08 30.6352 260.124 30.6352ZM260.124 27.6264C261.353 27.6264 262.506 27.3381 263.584 26.7614C264.663 26.1847 265.528 25.3197 266.179 24.1663C266.856 23.013 267.195 21.6089 267.195 19.954C267.195 18.2992 266.869 16.8951 266.217 15.7417C265.565 14.5884 264.713 13.7359 263.66 13.1843C262.607 12.6076 261.466 12.3193 260.237 12.3193C258.983 12.3193 257.83 12.6076 256.777 13.1843C255.749 13.7359 254.922 14.5884 254.295 15.7417C253.668 16.8951 253.355 18.2992 253.355 19.954C253.355 21.6339 253.655 23.0506 254.257 24.2039C254.884 25.3573 255.711 26.2223 256.739 26.799C257.767 27.3506 258.896 27.6264 260.124 27.6264Z" fill="#ffffff"/>
<path d="M282.79 9.31049C285.297 9.31049 287.328 10.0752 288.883 11.6047C290.437 13.1091 291.214 15.2904 291.214 18.1488V30.2967H287.829V18.6377C287.829 16.5817 287.315 15.0146 286.287 13.9365C285.259 12.8333 283.855 12.2817 282.075 12.2817C280.27 12.2817 278.828 12.8458 277.75 13.9741C276.697 15.1024 276.17 16.7447 276.17 18.901V30.2967H272.748V9.68658H276.17V12.6201C276.847 11.5671 277.763 10.7522 278.916 10.1755C280.094 9.59883 281.386 9.31049 282.79 9.31049Z" fill="#ffffff"/>
<path d="M293.082 19.9164C293.082 17.8103 293.508 15.9674 294.36 14.3878C295.213 12.7831 296.379 11.542 297.858 10.6644C299.362 9.78688 301.042 9.3481 302.898 9.3481C304.502 9.3481 305.994 9.72419 307.373 10.4764C308.752 11.2035 309.805 12.1688 310.532 13.3723V2.46552H313.993V30.2967H310.532V26.4229C309.855 27.6515 308.853 28.6669 307.524 29.4693C306.195 30.2466 304.64 30.6352 302.86 30.6352C301.03 30.6352 299.362 30.1839 297.858 29.2812C296.379 28.3786 295.213 27.1124 294.36 25.4827C293.508 23.8529 293.082 21.9975 293.082 19.9164ZM310.532 19.954C310.532 18.3995 310.219 17.0455 309.592 15.8922C308.965 14.7388 308.113 13.8613 307.035 13.2595C305.982 12.6327 304.816 12.3193 303.537 12.3193C302.258 12.3193 301.092 12.6201 300.039 13.2219C298.986 13.8237 298.146 14.7012 297.52 15.8546C296.893 17.0079 296.579 18.3619 296.579 19.9164C296.579 21.496 296.893 22.8751 297.52 24.0535C298.146 25.2069 298.986 26.0969 300.039 26.7238C301.092 27.3255 302.258 27.6264 303.537 27.6264C304.816 27.6264 305.982 27.3255 307.035 26.7238C308.113 26.0969 308.965 25.2069 309.592 24.0535C310.219 22.8751 310.532 21.5086 310.532 19.954Z" fill="#ffffff"/>
<path d="M14.626 26.1178C14.626 30.1567 11.3519 33.4308 7.313 33.4308C3.27414 33.4308 0 30.1567 0 26.1178C0 22.079 3.27414 18.8048 7.313 18.8048C11.3519 18.8048 14.626 22.079 14.626 26.1178Z" fill="#ffffff"/>
<path d="M33.4308 9.40242C33.4308 14.5952 29.2212 18.8048 24.0284 18.8048C18.8356 18.8048 14.626 14.5952 14.626 9.40242C14.626 4.20961 18.8356 0 24.0284 0C29.2212 0 33.4308 4.20961 33.4308 9.40242Z" fill="#ffffff"/>
</svg>
